HIERARCHY
ROOT Hips
{
	OFFSET 0.000000 100.481300 0.000000
	CHANNELS 6 Xposition Yposition Zposition Xrotation Yrotation Zrotation
	JOINT Spine
	{
		OFFSET -0.279200 12.230698 -2.892100
		CHANNELS 3 Xrotation Yrotation Zrotation
		JOINT Spine1
		{
			OFFSET -0.325700 14.269203 -3.374200
			CHANNELS 3 Xrotation Yrotation Zrotation
			JOINT Spine2
			{
				OFFSET -0.372300 16.307602 -0.352600
				CHANNELS 3 Xrotation Yrotation Zrotation
				JOINT Neck
				{
					OFFSET -0.418800 17.814194 8.416900
					CHANNELS 3 Xrotation Yrotation Zrotation
					JOINT Head
					{
						OFFSET 0.000000 7.031097 3.806800
						CHANNELS 3 Xrotation Yrotation Zrotation
						JOINT HeadTop_End
						{
							OFFSET 0.000000 24.646606 12.978600
							CHANNELS 3 Xrotation Yrotation Zrotation
							End Site
							{
								OFFSET 0.000000 27.854965 0.000000
							}
						}
					}
				}
				JOINT LeftShoulder
				{
					OFFSET 16.952999 14.495407 -7.737500
					CHANNELS 3 Xrotation Yrotation Zrotation
					JOINT LeftArm
					{
						OFFSET 9.308998 -2.777710 0.208600
						CHANNELS 3 Xrotation Yrotation Zrotation
						JOINT LeftForeArm
						{
							OFFSET 29.972298 0.000000 0.000000
							CHANNELS 3 Xrotation Yrotation Zrotation
							JOINT LeftHand
							{
								OFFSET 26.026505 0.000000 0.000000
								CHANNELS 3 Xrotation Yrotation Zrotation
								JOINT LeftHandThumb1
								{
									OFFSET 12.240501 -7.147949 9.207150
									CHANNELS 3 Xrotation Yrotation Zrotation
									JOINT LeftHandThumb2
									{
										OFFSET 4.138618 -2.389435 2.389433
										CHANNELS 3 Xrotation Yrotation Zrotation
										JOINT LeftHandThumb3
										{
											OFFSET 2.726913 -1.574387 1.574386
											CHANNELS 3 Xrotation Yrotation Zrotation
											JOINT LeftHandThumb4
											{
												OFFSET 3.941010 -2.275345 2.275342
												CHANNELS 3 Xrotation Yrotation Zrotation
												End Site
												{
													OFFSET -0.005798 5.087799 0.009903
												}
											}
										}
									}
								}
								JOINT LeftHandIndex1
								{
									OFFSET 24.424698 -1.985611 5.953459
									CHANNELS 3 Xrotation Yrotation Zrotation
									JOINT LeftHandIndex2
									{
										OFFSET 6.426697 0.000000 0.000000
										CHANNELS 3 Xrotation Yrotation Zrotation
										JOINT LeftHandIndex3
										{
											OFFSET 5.337898 0.000000 0.000000
											CHANNELS 3 Xrotation Yrotation Zrotation
											JOINT LeftHandIndex4
											{
												OFFSET 4.409401 0.000000 0.000000
												CHANNELS 3 Xrotation Yrotation Zrotation
												End Site
												{
													OFFSET 0.000000 4.409363 0.014373
												}
											}
										}
									}
								}
								JOINT LeftHandMiddle1
								{
									OFFSET 23.810104 0.000000 0.000000
									CHANNELS 3 Xrotation Yrotation Zrotation
									JOINT LeftHandMiddle2
									{
										OFFSET 7.176498 0.000000 0.000000
										CHANNELS 3 Xrotation Yrotation Zrotation
										JOINT LeftHandMiddle3
										{
											OFFSET 6.774902 0.000000 0.000000
											CHANNELS 3 Xrotation Yrotation Zrotation
											JOINT LeftHandMiddle4
											{
												OFFSET 5.403328 0.000000 0.000000
												CHANNELS 3 Xrotation Yrotation Zrotation
												End Site
												{
													OFFSET -0.027702 5.403244 0.017414
												}
											}
										}
									}
								}
								JOINT LeftHandRing1
								{
									OFFSET 22.908401 -0.839279 -6.020567
									CHANNELS 3 Xrotation Yrotation Zrotation
									JOINT LeftHandRing2
									{
										OFFSET 6.337502 0.000000 0.000000
										CHANNELS 3 Xrotation Yrotation Zrotation
										JOINT LeftHandRing3
										{
											OFFSET 5.779297 0.000000 0.000000
											CHANNELS 3 Xrotation Yrotation Zrotation
											JOINT LeftHandRing4
											{
												OFFSET 4.965698 0.000000 0.000000
												CHANNELS 3 Xrotation Yrotation Zrotation
												End Site
												{
													OFFSET 0.000000 4.965668 0.016186
												}
											}
										}
									}
								}
								JOINT LeftHandPinky1
								{
									OFFSET 20.037003 -1.530319 -10.950146
									CHANNELS 3 Xrotation Yrotation Zrotation
									JOINT LeftHandPinky2
									{
										OFFSET 5.254700 0.000000 0.000000
										CHANNELS 3 Xrotation Yrotation Zrotation
										JOINT LeftHandPinky3
										{
											OFFSET 4.810204 0.000000 0.000000
											CHANNELS 3 Xrotation Yrotation Zrotation
											JOINT LeftHandPinky4
											{
												OFFSET 3.647202 0.000000 0.000000
												CHANNELS 3 Xrotation Yrotation Zrotation
												End Site
												{
													OFFSET 0.000000 3.647186 0.011889
												}
											}
										}
									}
								}
							}
						}
					}
				}
				JOINT RightShoulder
				{
					OFFSET -15.141001 14.495407 -7.737500
					CHANNELS 3 Xrotation Yrotation Zrotation
					JOINT RightArm
					{
						OFFSET -9.308998 -2.777710 0.208500
						CHANNELS 3 Xrotation Yrotation Zrotation
						JOINT RightForeArm
						{
							OFFSET -29.972300 0.000000 0.000000
							CHANNELS 3 Xrotation Yrotation Zrotation
							JOINT RightHand
							{
								OFFSET -26.026505 0.000000 0.000000
								CHANNELS 3 Xrotation Yrotation Zrotation
								JOINT RightHandThumb1
								{
									OFFSET -12.240601 -7.148026 9.207092
									CHANNELS 3 Xrotation Yrotation Zrotation
									JOINT RightHandThumb2
									{
										OFFSET -4.138618 -2.389435 2.389433
										CHANNELS 3 Xrotation Yrotation Zrotation
										JOINT RightHandThumb3
										{
											OFFSET -2.726974 -1.574417 1.574421
											CHANNELS 3 Xrotation Yrotation Zrotation
											JOINT RightHandThumb4
											{
												OFFSET -3.941010 -2.275345 2.275343
												CHANNELS 3 Xrotation Yrotation Zrotation
												End Site
												{
													OFFSET 0.005814 5.087799 0.009927
												}
											}
										}
									}
								}
								JOINT RightHandIndex1
								{
									OFFSET -24.424698 -1.985657 5.953444
									CHANNELS 3 Xrotation Yrotation Zrotation
									JOINT RightHandIndex2
									{
										OFFSET -6.426697 0.000000 0.000000
										CHANNELS 3 Xrotation Yrotation Zrotation
										JOINT RightHandIndex3
										{
											OFFSET -5.337898 0.000000 0.000000
											CHANNELS 3 Xrotation Yrotation Zrotation
											JOINT RightHandIndex4
											{
												OFFSET -4.409401 0.000000 0.000000
												CHANNELS 3 Xrotation Yrotation Zrotation
												End Site
												{
													OFFSET 0.000000 4.409363 0.014408
												}
											}
										}
									}
								}
								JOINT RightHandMiddle1
								{
									OFFSET -23.810097 0.000000 0.000000
									CHANNELS 3 Xrotation Yrotation Zrotation
									JOINT RightHandMiddle2
									{
										OFFSET -7.176498 0.000000 0.000000
										CHANNELS 3 Xrotation Yrotation Zrotation
										JOINT RightHandMiddle3
										{
											OFFSET -6.774902 0.000000 0.000000
											CHANNELS 3 Xrotation Yrotation Zrotation
											JOINT RightHandMiddle4
											{
												OFFSET -5.403328 0.000000 0.000000
												CHANNELS 3 Xrotation Yrotation Zrotation
												End Site
												{
													OFFSET 0.027702 5.403244 0.017457
												}
											}
										}
									}
								}
								JOINT RightHandRing1
								{
									OFFSET -22.908302 -0.839325 -6.020576
									CHANNELS 3 Xrotation Yrotation Zrotation
									JOINT RightHandRing2
									{
										OFFSET -6.337502 0.000000 0.000000
										CHANNELS 3 Xrotation Yrotation Zrotation
										JOINT RightHandRing3
										{
											OFFSET -5.779297 0.000000 0.000000
											CHANNELS 3 Xrotation Yrotation Zrotation
											JOINT RightHandRing4
											{
												OFFSET -4.965698 0.000000 0.000000
												CHANNELS 3 Xrotation Yrotation Zrotation
												End Site
												{
													OFFSET 0.000000 4.965668 0.016226
												}
											}
										}
									}
								}
								JOINT RightHandPinky1
								{
									OFFSET -20.037003 -1.530334 -10.950259
									CHANNELS 3 Xrotation Yrotation Zrotation
									JOINT RightHandPinky2
									{
										OFFSET -5.254700 0.000000 0.000000
										CHANNELS 3 Xrotation Yrotation Zrotation
										JOINT RightHandPinky3
										{
											OFFSET -4.810204 0.000000 0.000000
											CHANNELS 3 Xrotation Yrotation Zrotation
											JOINT RightHandPinky4
											{
												OFFSET -3.647202 0.000000 0.000000
												CHANNELS 3 Xrotation Yrotation Zrotation
												End Site
												{
													OFFSET 0.000000 3.647186 0.011917
												}
											}
										}
									}
								}
							}
						}
					}
				}
			}
		}
	}
	JOINT LeftUpLeg
	{
		OFFSET 15.427100 -6.655098 0.678600
		CHANNELS 3 Xrotation Yrotation Zrotation
		JOINT LeftLeg
		{
			OFFSET 4.081073 -39.591068 13.024000
			CHANNELS 3 Xrotation Yrotation Zrotation
			JOINT LeftFoot
			{
				OFFSET -4.081074 -37.707932 -15.979700
				CHANNELS 3 Xrotation Yrotation Zrotation
				JOINT LeftToeBase
				{
					OFFSET 5.346399 -15.068900 20.645000
					CHANNELS 3 Xrotation Yrotation Zrotation
					JOINT LeftToe_End
					{
						OFFSET 2.754700 0.931300 11.300900
						CHANNELS 3 Xrotation Yrotation Zrotation
						End Site
						{
							OFFSET 0.000000 11.669021 0.000000
						}
					}
				}
			}
		}
	}
	JOINT RightUpLeg
	{
		OFFSET -15.569500 -6.655098 0.678600
		CHANNELS 3 Xrotation Yrotation Zrotation
		JOINT RightLeg
		{
			OFFSET -4.081825 -39.591045 13.023800
			CHANNELS 3 Xrotation Yrotation Zrotation
			JOINT RightFoot
			{
				OFFSET 4.081824 -37.707954 -15.979600
				CHANNELS 3 Xrotation Yrotation Zrotation
				JOINT RightToeBase
				{
					OFFSET -5.346400 -15.068900 20.645000
					CHANNELS 3 Xrotation Yrotation Zrotation
					JOINT RightToe_End
					{
						OFFSET -2.754700 0.931300 11.300900
						CHANNELS 3 Xrotation Yrotation Zrotation
						End Site
						{
							OFFSET 0.000000 11.669021 0.000000
						}
					}
				}
			}
		}
	}
}
MOTION
Frames: 4
Frame Time: 0.033333
2.476420 56.144821 3.389357 -15.535793 1.634010 -7.410414 4.177748 1.210959 3.115184 8.371002 1.467762 3.776492 8.371001 1.467761 3.776490 17.891344 13.517596 -10.164339 20.792783 29.496097 -11.547867 -0.000000 0.000000 -0.000000 8.880963 -11.303369 3.732736 -9.528653 -46.459913 -55.866832 4.770690 -74.092062 4.647693 71.406138 7.622343 -23.282052 -3.239769 -1.484021 -5.859677 -3.965782 1.350042 2.845001 0.000009 0.000002 -0.000006 0.000000 -0.000002 -0.000001 -7.299876 -9.256554 4.373214 0.689481 1.760259 -21.487533 -0.000002 -0.000000 0.000003 0.000001 -0.000000 0.000001 -2.123548 2.232980 -12.436458 -0.603303 -1.572072 -37.139615 0.000000 -0.000003 -0.000000 -0.000000 0.000000 0.000001 1.596767 5.401257 -25.157062 -1.442768 -2.559228 -42.724657 -0.000002 0.000003 -0.000001 -0.000004 -0.000001 0.000000 5.836418 1.754697 -26.978183 -4.231817 -8.178717 -53.045797 -0.000002 -0.000002 0.000001 -0.000003 -0.000003 -0.000000 0.955695 6.571322 4.740969 1.558393 64.609956 46.934564 169.316674 86.251533 -169.321059 38.500298 -8.340388 6.301868 -28.531703 -15.177391 24.383186 1.776737 -12.374536 -7.101639 0.000003 -0.000002 -0.000004 0.000000 0.000000 0.000006 6.329707 -7.713811 26.297736 0.050007 -0.913023 12.856624 -0.000000 0.000002 -0.000001 0.000002 0.000001 -0.000003 3.138146 -6.426081 43.142145 -0.081933 0.497620 11.499582 -0.000004 -0.000002 -0.000003 -0.000001 0.000001 0.000000 -3.026878 -15.397400 46.246705 -0.642616 0.987843 34.377087 -0.000001 0.000000 -0.000001 -0.000001 0.000001 -0.000000 -5.389183 -17.505884 54.546990 -2.110087 4.995156 51.044408 0.000000 -0.000004 -0.000001 0.000001 0.000001 0.000000 -59.911592 -27.199340 20.939608 89.012972 -6.825140 -4.681538 14.065370 7.528104 -21.348023 -27.460533 -0.256364 1.159110 0.000001 -0.000002 -0.000001 -60.735463 -0.904310 -14.358811 62.577729 5.468114 3.162672 14.173926 -4.667000 7.862972 0.098788 -0.000642 0.000502 0.000000 -0.000000 0.000000 
2.493038 56.138962 3.393768 -15.503498 1.715130 -7.467541 4.144507 1.226848 3.116294 8.304661 1.494455 3.780080 8.304664 1.494455 3.780079 17.971998 13.515281 -10.310061 20.905850 29.574395 -11.679219 0.000001 0.000000 0.000000 8.831333 -11.153402 3.275680 -9.359162 -46.629353 -55.437394 4.797874 -73.980928 4.661284 71.476536 7.049770 -23.336731 -3.179672 -1.361827 -6.023193 -3.942781 1.342773 2.826058 0.000007 -0.000001 -0.000009 -0.000004 -0.000000 -0.000000 -7.336814 -9.173454 4.266156 0.691884 1.764738 -21.557607 -0.000003 -0.000002 -0.000001 0.000001 -0.000000 0.000002 -2.135475 2.218695 -12.539627 -0.602402 -1.570589 -37.103094 -0.000005 -0.000006 0.000001 -0.000001 0.000000 0.000000 1.594565 5.395560 -25.234151 -1.442105 -2.558563 -42.714951 -0.000002 -0.000001 -0.000001 0.000000 0.000001 -0.000002 5.828365 1.740916 -27.109497 -4.229679 -8.177324 -53.032157 0.000003 -0.000000 0.000001 -0.000001 0.000001 -0.000000 0.977637 6.711346 4.563024 1.345035 64.886845 47.039721 168.445620 86.633197 -168.450073 37.987040 -9.120778 5.775868 -28.518137 -15.321192 24.631614 1.933518 -12.767970 -7.040218 0.000005 -0.000001 0.000002 0.000002 0.000003 0.000002 6.279055 -7.584928 26.847114 0.049986 -0.912950 12.854754 0.000003 0.000003 -0.000003 0.000002 0.000002 -0.000007 3.084730 -6.344198 43.393435 -0.086397 0.520379 11.849171 -0.000002 0.000001 -0.000001 0.000002 -0.000000 0.000001 -3.001821 -15.393421 46.387742 -0.644752 0.991175 34.438203 -0.000002 0.000001 -0.000000 0.000000 0.000001 -0.000000 -5.392772 -17.460897 54.929307 -2.132538 5.017202 51.319453 -0.000003 -0.000003 -0.000000 -0.000000 -0.000001 -0.000002 -60.022862 -27.255308 20.893445 89.043032 -6.825043 -4.677954 14.064476 7.518657 -21.292853 -27.441786 -0.255703 1.159111 -0.000000 0.000002 -0.000000 -60.730005 -0.995149 -14.423109 62.576417 5.474307 3.166951 14.144449 -4.660455 7.866878 0.115469 -0.000756 0.000592 -0.000000 0.000001 0.000000 
2.517304 56.136040 3.399237 -15.471041 1.775345 -7.506158 4.112469 1.229193 3.112265 8.240718 1.493568 3.772122 8.240719 1.493566 3.772122 18.051276 13.519952 -10.473868 21.046391 29.714226 -11.815646 0.000003 -0.000001 0.000002 8.762836 -10.975708 2.671952 -9.016443 -46.760626 -54.846009 4.824507 -73.867103 4.675113 71.674824 6.541362 -23.310650 -3.057233 -1.095590 -6.190982 -3.888660 1.325393 2.782507 0.000010 -0.000001 -0.000011 0.000004 0.000001 -0.000001 -7.449604 -8.997856 3.903266 0.692666 1.766162 -21.580116 0.000001 0.000001 0.000001 -0.000001 -0.000001 0.000002 -2.166154 2.207771 -12.883583 -0.600542 -1.567467 -37.027647 -0.000005 -0.000004 0.000001 -0.000002 0.000002 -0.000001 1.580822 5.363925 -25.497808 -1.440754 -2.557189 -42.695270 0.000001 0.000003 -0.000001 0.000001 -0.000001 0.000000 5.801207 1.699264 -27.538341 -4.217728 -8.169633 -52.955956 -0.000002 -0.000001 -0.000002 0.000003 0.000000 -0.000001 1.002982 6.867046 4.363920 1.187097 65.236803 47.052736 167.300033 87.034553 -167.304159 37.545427 -9.722595 5.052984 -28.523819 -15.450675 24.919938 2.082547 -13.138868 -6.981647 0.000005 -0.000004 0.000001 0.000001 -0.000001 0.000001 6.247320 -7.503284 27.277557 0.051759 -0.918392 12.967718 -0.000002 0.000001 -0.000002 -0.000001 -0.000002 -0.000000 3.023755 -6.253896 43.660488 -0.089355 0.535084 12.075216 -0.000005 -0.000001 0.000001 -0.000000 -0.000001 -0.000001 -2.975047 -15.390370 46.532542 -0.646333 0.993652 34.483460 -0.000001 -0.000001 -0.000001 0.000001 -0.000001 -0.000000 -5.396240 -17.421502 55.272363 -2.138216 5.022712 51.386679 0.000000 -0.000003 0.000001 0.000002 -0.000002 -0.000002 -60.115773 -27.309596 20.820735 89.070277 -6.815725 -4.670824 14.064884 7.515454 -21.271320 -27.433054 -0.255430 1.159113 0.000000 -0.000001 -0.000001 -60.730634 -1.060047 -14.491759 62.571158 5.481232 3.172096 14.121492 -4.641064 7.877302 0.129799 -0.000849 0.000668 -0.000000 -0.000001 -0.000000 
2.536978 56.136719 3.397898 -15.462360 1.816489 -7.554366 4.099729 1.235092 3.097723 8.215521 1.500748 3.743174 8.215519 1.500746 3.743176 18.047585 13.533921 -10.570268 21.126578 29.836729 -11.933505 0.000001 -0.000001 0.000001 8.730258 -10.854139 2.355736 -8.809710 -46.868826 -54.460278 4.816575 -73.698554 4.655287 71.967716 6.336430 -23.216984 -3.006048 -0.974171 -6.223812 -3.868126 1.318911 2.765511 0.000005 -0.000000 -0.000006 0.000003 0.000001 -0.000001 -7.500807 -8.916573 3.738085 0.693373 1.767478 -21.600864 -0.000003 -0.000000 0.000001 -0.000004 -0.000000 0.000002 -2.186482 2.164731 -13.003469 -0.600266 -1.566994 -37.015876 -0.000003 -0.000005 0.000002 0.000000 0.000001 -0.000001 1.568765 5.337722 -25.560286 -1.441804 -2.558261 -42.710727 0.000001 0.000001 0.000000 0.000004 -0.000002 0.000001 5.785469 1.668887 -27.631947 -4.218481 -8.170090 -52.960689 -0.000001 -0.000003 0.000001 0.000002 -0.000001 -0.000001 1.011519 6.919719 4.292450 1.137773 65.646956 46.887135 166.034850 87.379006 -166.039153 37.136029 -10.159878 4.409943 -28.497066 -15.641282 25.237134 2.275997 -13.620528 -6.903804 0.000004 -0.000006 0.000004 0.000001 0.000002 0.000002 6.197579 -7.396317 27.610734 0.052995 -0.922093 13.045117 -0.000001 0.000001 -0.000002 -0.000000 0.000000 -0.000003 2.977438 -6.166606 44.089196 -0.093519 0.555285 12.385988 -0.000009 -0.000001 0.000003 -0.000001 -0.000001 -0.000001 -2.946557 -15.398585 46.627314 -0.652049 1.002516 34.646404 -0.000001 0.000001 -0.000000 -0.000000 -0.000001 -0.000000 -5.441275 -17.380916 55.357324 -2.170581 5.054079 51.781969 -0.000002 -0.000004 0.000000 -0.000000 -0.000001 -0.000001 -60.158373 -27.384491 20.771263 89.087749 -6.809924 -4.666209 14.069336 7.515741 -21.275585 -27.426790 -0.255219 1.159113 -0.000001 -0.000001 -0.000001 -60.703142 -1.117955 -14.518214 62.548482 5.483713 3.175470 14.113403 -4.632739 7.893844 0.133643 -0.000878 0.000689 0.000000 -0.000000 0.000000 
